<svg width="107" height="105" viewBox="0 0 107 105" fill="none" xmlns="http://www.w3.org/2000/svg">
<g filter="url(#filter0_d_739_376)">
<path d="M58.5294 23.5503V22.5168L56.4118 22.2584L52.9706 22H50.0588L46.6176 22.7751L43.1765 23.8087L40.5294 24.8422L37.6176 26.3925L34.4412 28.2011L31 31.0433L28.6176 34.1438L26.2353 37.2444L24.6471 40.0866L23.5882 43.4455L22.5294 46.5461L22.2647 49.6466L22 54.0391L22.2647 57.398L23.8529 63.3407L26.2353 67.9915L28.3529 71.3505L31.5294 74.7094L34.7059 77.5516L40.2647 80.6521L45.5588 82.4608L50.5882 83.4943H54.5588L59.3235 82.9776L64.0882 81.944L68.0588 80.1354L73.3529 76.7765L76.5294 73.6759L78.9118 70.8337L80.7647 68.2499L82.6176 64.6326L83.6765 61.5321L84.2059 58.9483L84.7353 56.6228L85 54.8142V52.4888V50.9385V49.905L84.7353 48.6131L84.2059 49.6466L83.4118 50.6801L82.0882 52.2304L80.5 53.5223L78.6471 54.8142L77.0588 55.5893L75.7353 56.1061L74.1471 56.3645L73.0882 56.6228H72.5588H71.7647H71.2353L70.4412 56.3645H69.3824L67.2647 55.331L65.9412 54.5558L65.1471 53.5223L64.0882 52.7472L63.2941 51.4553L62.5 50.1634L61.4412 48.0963L61.1765 47.5796L60.6471 46.2877L60.3824 45.2542L60.1176 44.479L59.8529 43.4455L59.5882 42.6704V42.1536L59.0588 40.8617L58.5294 37.2444V36.2109L58.2647 35.1774V34.1438L58 32.8519V32.0768V31.56V31.0433V30.0098V29.493V29.2346V28.7179V28.2011V27.6843V27.1676V26.6508L58.2647 26.1341V25.6173V25.1006V24.5838L58.5294 23.5503Z" stroke="#30D5C8" stroke-width="3" shape-rendering="crispEdges"/>
</g>
<defs>
<filter id="filter0_d_739_376" x="0.496094" y="0.5" width="106.004" height="104.494" filterUnits="userSpaceOnUse" color-interpolation-filters="sRGB">
<feFlood flood-opacity="0" result="BackgroundImageFix"/>
<feColorMatrix in="SourceAlpha" type="matrix" values="0 0 0 0 0 0 0 0 0 0 0 0 0 0 0 0 0 0 127 0" result="hardAlpha"/>
<feOffset/>
<feGaussianBlur stdDeviation="10"/>
<feComposite in2="hardAlpha" operator="out"/>
<feColorMatrix type="matrix" values="0 0 0 0 0.188235 0 0 0 0 0.835294 0 0 0 0 0.784314 0 0 0 1 0"/>
<feBlend mode="normal" in2="BackgroundImageFix" result="effect1_dropShadow_739_376"/>
<feBlend mode="normal" in="SourceGraphic" in2="effect1_dropShadow_739_376" result="shape"/>
</filter>
</defs>
</svg>
